<svg width="30" height="30" viewBox="0 0 30 30" fill="none" xmlns="http://www.w3.org/2000/svg">
<g clip-path="url(#clip0_391_746)">
<path d="M25.4336 26.3299L25.0947 26.3779C25.0254 26.3885 24.9543 26.3846 24.8856 26.3688L24.1077 26.1847C23.9279 26.1424 23.7384 26.1904 23.6014 26.3144C23.4644 26.438 23.397 26.6212 23.4207 26.8053L23.5245 27.5938C23.5312 27.6448 23.5452 27.6953 23.5659 27.7434L24.0933 28.9631C24.1827 29.1684 24.3855 29.302 24.6096 29.302H24.6606C24.814 29.302 24.9616 29.2386 25.0673 29.1275L25.6712 28.4934C25.7443 28.4169 25.7938 28.3218 25.8149 28.2184L26.0639 26.9992C26.101 26.8203 26.0471 26.6343 25.9221 26.5011C25.797 26.3678 25.6144 26.3034 25.4336 26.3299Z" fill="white"/>
<path d="M29.9949 15.8529L29.5055 12.2173C29.492 12.1202 29.454 12.0284 29.3944 11.9505L26.6463 8.36924C26.6002 8.30959 26.5424 8.26008 26.4766 8.22311L25.0131 7.39664C24.9121 7.34039 24.8309 7.25291 24.7809 7.14809L24.1035 5.71682C24.077 5.66151 24.0602 5.60385 24.0534 5.54373L23.9203 4.44902C23.8996 4.27928 23.8025 4.12834 23.6569 4.03746L22.9237 3.58699C22.8069 3.51486 22.7203 3.40236 22.6805 3.27065L21.9045 0.698029H21.5083L20.9675 1.98697C20.9463 2.03842 20.9319 2.09233 20.9266 2.14852L20.5761 5.65483C20.5535 5.88223 20.3948 6.0736 20.1751 6.13846L20.04 6.17789C19.8809 6.22401 19.7092 6.19858 19.5708 6.10676L16.8035 4.27401C16.5698 4.1192 16.4852 3.81539 16.6069 3.56197L17.0992 2.53459C17.1737 2.37832 17.1732 2.19703 17.0968 2.04229C17.0203 1.88748 16.8766 1.77598 16.7078 1.74135L14.1564 1.20574C13.9593 1.16438 13.7564 1.23076 13.6228 1.37977L11.9002 3.29854L12.1199 3.87158H11.2318C11.0679 3.87158 10.9126 3.80092 10.8059 3.67688L10.476 3.2942C10.2847 3.07301 9.9549 3.03504 9.71836 3.2086L6.51018 5.55861C6.40436 5.63602 6.32889 5.74799 6.29766 5.87543L6.02314 6.97447C5.97697 7.1567 5.84426 7.30283 5.66783 7.36682L4.39096 7.82789C4.37268 7.83463 4.35439 7.84278 4.33711 7.85098L0.316875 9.80045C0.123047 9.8942 0 10.0904 0 10.3058V13.3337C0 13.4005 0.0120703 13.4683 0.035625 13.5308L1.52168 17.4933C1.56398 17.6058 1.56926 17.7289 1.53562 17.8453L1.1673 19.1337C1.15336 19.1838 1.14621 19.2356 1.14621 19.2881V19.8755C1.14621 20.0145 1.19666 20.1476 1.28947 20.2501L1.71111 20.7226C1.82701 20.8525 1.99717 20.9207 2.17025 20.9087L2.98137 20.85C3.07799 20.8438 3.17174 20.8116 3.25301 20.7577L4.45395 19.9568C4.53902 19.9 4.63711 19.8679 4.73953 19.8626L7.14193 19.752C7.33324 19.7433 7.50633 19.6386 7.60248 19.4722L7.815 19.1058C7.89094 18.9751 8.01598 18.8794 8.16258 18.8423L13.0126 17.6097C13.1987 17.5635 13.3948 17.6135 13.5347 17.7433L16.1804 20.2111C16.3997 20.4149 16.7405 20.4115 16.9554 20.2029L17.4141 19.7572C17.5583 19.6173 17.7664 19.5645 17.9593 19.6202C18.153 19.675 18.3025 19.8289 18.3511 20.0246L18.379 20.1347L18.5953 20.9645C18.6266 21.0837 18.6954 21.19 18.7924 21.265L19.4222 21.7587C19.5693 21.8731 19.6492 22.053 19.6367 22.2385L19.6246 22.4174C19.617 22.5376 19.6482 22.6573 19.7131 22.7588L20.2862 23.6511C20.3631 23.7707 20.4823 23.8568 20.6198 23.8924L22.131 24.2784C22.2415 24.3063 22.3588 24.3001 22.4656 24.2611L23.3026 23.951C23.4242 23.9059 23.5584 23.9044 23.6814 23.9467L24.4348 24.2073C24.5651 24.252 24.7074 24.2486 24.8343 24.1952L27.0598 23.2683C27.2012 23.2092 27.3127 23.0947 27.3684 22.9515L29.0002 18.7245L29.9651 16.1235C29.9968 16.0371 30.0074 15.9438 29.9949 15.8529Z" fill="white"/>
</g>
<defs>
<clipPath id="clip0_391_746">
<rect width="30" height="30" fill="white"/>
</clipPath>
</defs>
</svg>
