<svg width="76" height="55" viewBox="0 0 76 55" fill="none" xmlns="http://www.w3.org/2000/svg">
<path d="M14.6074 27.0566C14.3488 27.3169 14.2194 27.4471 14.2654 27.5575C14.3113 27.668 14.4948 27.668 14.8619 27.668H27.7532C27.8268 27.668 27.8637 27.668 27.8967 27.6542C27.9298 27.6404 27.9557 27.6143 28.0076 27.5621L36.0701 19.4472C36.3288 19.1868 36.4581 19.0566 36.4122 18.9462C36.3662 18.8358 36.1827 18.8358 35.8157 18.8358H22.9243C22.8507 18.8358 22.8139 18.8358 22.7808 18.8495C22.7477 18.8633 22.7218 18.8894 22.6699 18.9416L14.6074 27.0566Z" fill="white"/>
<path d="M61.1855 27.0566C61.4442 27.3169 61.5735 27.4471 61.5276 27.5575C61.4816 27.668 61.2981 27.668 60.9311 27.668H48.0397C47.9661 27.668 47.9293 27.668 47.8962 27.6542C47.8632 27.6404 47.8372 27.6143 47.7853 27.5621L39.7229 19.4472C39.4642 19.1868 39.3349 19.0566 39.3808 18.9462C39.4268 18.8358 39.6103 18.8358 39.9773 18.8358H52.8687C52.9423 18.8358 52.9791 18.8358 53.0122 18.8495C53.0452 18.8633 53.0712 18.8894 53.1231 18.9416L61.1855 27.0566Z" fill="white"/>
<path d="M14.6074 6.84187C14.3488 6.58151 14.2194 6.45132 14.2654 6.3409C14.3113 6.23047 14.4948 6.23047 14.8619 6.23047H27.7532C27.8268 6.23047 27.8637 6.23047 27.8967 6.24423C27.9298 6.25799 27.9557 6.28411 28.0076 6.33633L36.0701 14.4513C36.3288 14.7116 36.4581 14.8418 36.4122 14.9523C36.3662 15.0627 36.1827 15.0627 35.8157 15.0627H22.9243C22.8507 15.0627 22.8139 15.0627 22.7808 15.0489C22.7477 15.0352 22.7218 15.009 22.6699 14.9568L14.6074 6.84187Z" fill="white"/>
<path d="M61.1855 6.84187C61.4442 6.58151 61.5735 6.45132 61.5276 6.3409C61.4816 6.23047 61.2981 6.23047 60.9311 6.23047H48.0397C47.9661 6.23047 47.9293 6.23047 47.8962 6.24423C47.8632 6.25799 47.8372 6.28411 47.7853 6.33633L39.7229 14.4513C39.4642 14.7116 39.3349 14.8418 39.3808 14.9523C39.4268 15.0627 39.6103 15.0627 39.9773 15.0627H52.8687C52.9423 15.0627 52.9791 15.0627 53.0122 15.0489C53.0452 15.0352 53.0712 15.009 53.1231 14.9568L61.1855 6.84187Z" fill="white"/>
<path d="M37.7696 22.6973C37.8398 22.6267 37.9539 22.6267 38.024 22.6973L46.0386 30.7602C46.1511 30.8733 46.071 31.0659 45.9115 31.0659H29.8822C29.7227 31.0659 29.6426 30.8733 29.755 30.7602L37.7696 22.6973Z" fill="#459BFC"/>
<path d="M37.7696 11.2012C37.8398 11.2717 37.9539 11.2717 38.024 11.2012L46.0386 3.13826C46.1511 3.02514 46.071 2.83252 45.9115 2.83252H29.8822C29.7227 2.83252 29.6426 3.02514 29.755 3.13825L37.7696 11.2012Z" fill="#459BFC"/>
<path d="M0.4 45H13.4V46.8H3.56V47.6H13.4V49.4H3.56V50.2H13.4V52H0.4V45ZM13.9988 45H18.2188L22.1088 49.8L25.9988 45H30.3788V52H27.2188V47.89L23.8888 52H20.3288L17.1588 48.09V52H13.9988V45ZM30.9766 45H41.4766C41.9166 45 42.3099 45.08 42.6566 45.24C43.0032 45.4 43.2966 45.6133 43.5366 45.88C43.7766 46.14 43.9599 46.4367 44.0866 46.77C44.2132 47.1033 44.2766 47.4467 44.2766 47.8C44.2766 48.1467 44.2132 48.49 44.0866 48.83C43.9599 49.1633 43.7766 49.4633 43.5366 49.73C43.2966 49.99 43.0032 50.2 42.6566 50.36C42.3099 50.52 41.9166 50.6 41.4766 50.6H34.1366V52H30.9766V45ZM34.1366 47.4V48.2H40.6766C40.9699 48.2 41.1166 48.0667 41.1166 47.8C41.1166 47.5333 40.9699 47.4 40.6766 47.4H34.1366ZM44.5754 45H47.7354V52H44.5754V45ZM48.3402 45H58.8402C59.2802 45 59.6736 45.08 60.0202 45.24C60.3669 45.4 60.6602 45.6133 60.9002 45.88C61.1402 46.14 61.3236 46.4367 61.4502 46.77C61.5769 47.1033 61.6402 47.4467 61.6402 47.8C61.6402 48.1 61.5902 48.3967 61.4902 48.69C61.3969 48.9833 61.2569 49.2533 61.0702 49.5C60.8902 49.7467 60.6669 49.96 60.4002 50.14C60.1402 50.32 59.8436 50.45 59.5102 50.53L61.6402 52H57.5602L55.5302 50.6H51.5002V52H48.3402V45ZM51.5002 47.4V48.2H58.0402C58.3336 48.2 58.4802 48.0667 58.4802 47.8C58.4802 47.5333 58.3336 47.4 58.0402 47.4H51.5002ZM62.0465 45H75.0465V46.8H65.2065V47.6H75.0465V49.4H65.2065V50.2H75.0465V52H62.0465V45Z" fill="white"/>
</svg>
