<svg width="33" height="24" viewBox="0 0 33 24" fill="none" xmlns="http://www.w3.org/2000/svg">
<path d="M1.50645 5.45547C0.96827 4.91379 0.699181 4.64295 0.794779 4.41321C0.890377 4.18347 1.27217 4.18347 2.03575 4.18347H9.26719C9.42036 4.18347 9.49695 4.18347 9.56575 4.2121C9.63455 4.24073 9.68853 4.29506 9.79649 4.40372L14.206 8.84198C14.7442 9.38366 15.0133 9.6545 14.9177 9.88424C14.8221 10.114 14.4403 10.114 13.6767 10.114H6.4453C6.29212 10.114 6.21554 10.114 6.14674 10.0853C6.07793 10.0567 6.02396 10.0024 5.916 9.89373L1.50645 5.45547Z" fill="white"/>
<path d="M1.50645 18.0472C0.96827 18.5889 0.699181 18.8597 0.794779 19.0895C0.890377 19.3192 1.27217 19.3192 2.03575 19.3192H9.26719C9.42036 19.3192 9.49695 19.3192 9.56575 19.2906C9.63455 19.262 9.68853 19.2076 9.79649 19.099L14.206 14.6607C14.7442 14.119 15.0133 13.8482 14.9177 13.6184C14.8221 13.3887 14.4403 13.3887 13.6767 13.3887H6.4453C6.29212 13.3887 6.21554 13.3887 6.14674 13.4173C6.07793 13.446 6.02396 13.5003 5.916 13.609L1.50645 18.0472Z" fill="white"/>
<path d="M31.0702 5.45547C31.6084 4.91379 31.8775 4.64295 31.7819 4.41321C31.6863 4.18347 31.3045 4.18347 30.5409 4.18347H23.3095C23.1563 4.18347 23.0797 4.18347 23.0109 4.2121C22.9421 4.24073 22.8881 4.29506 22.7802 4.40372L18.3706 8.84198C17.8324 9.38366 17.5634 9.6545 17.659 9.88424C17.7546 10.114 18.1363 10.114 18.8999 10.114H26.1314C26.2845 10.114 26.3611 10.114 26.4299 10.0853C26.4987 10.0567 26.5527 10.0024 26.6607 9.89373L31.0702 5.45547Z" fill="white"/>
<path d="M31.0702 18.0472C31.6084 18.5889 31.8775 18.8597 31.7819 19.0895C31.6863 19.3192 31.3045 19.3192 30.5409 19.3192H23.3095C23.1563 19.3192 23.0797 19.3192 23.0109 19.2906C22.9421 19.262 22.8881 19.2076 22.7802 19.099L18.3706 14.6607C17.8324 14.119 17.5634 13.8482 17.659 13.6184C17.7546 13.3887 18.1363 13.3887 18.8999 13.3887H26.1314C26.2845 13.3887 26.3611 13.3887 26.4299 13.4173C26.4987 13.446 26.5527 13.5003 26.6607 13.609L31.0702 18.0472Z" fill="white"/>
<path d="M16.0386 7.34027C16.1845 7.48701 16.4219 7.48701 16.5678 7.34027L21.3419 2.53737C21.5758 2.30203 21.4092 1.90131 21.0773 1.90131H11.529C11.1972 1.90131 11.0305 2.30203 11.2644 2.53737L16.0386 7.34027Z" fill="#459BFC"/>
<path d="M16.0386 16.1627C16.1845 16.0159 16.4219 16.0159 16.5678 16.1627L21.3419 20.9656C21.5758 21.2009 21.4092 21.6016 21.0773 21.6016H11.529C11.1972 21.6016 11.0305 21.2009 11.2644 20.9656L16.0386 16.1627Z" fill="#459BFC"/>
</svg>
