<svg width="30" height="31" viewBox="0 0 30 31" fill="none" xmlns="http://www.w3.org/2000/svg">
<path d="M27.3778 25.9909L25.99 27.3786C25.7345 27.6341 25.3985 27.7619 25.0616 27.7619C24.7248 27.7619 24.3896 27.6341 24.1332 27.3786L20.3769 23.6223L18.4239 25.5753C18.0817 25.9174 17.6346 26.088 17.1866 26.088C16.7386 26.088 16.2906 25.9174 15.9494 25.5753L15.7989 25.4248C15.1155 24.7414 15.1155 23.6336 15.7989 22.9503L22.9494 15.7998C23.2915 15.4576 23.7386 15.287 24.1866 15.287C24.6346 15.287 25.0826 15.4576 25.4239 15.7998L25.5744 15.9503C26.2577 16.6336 26.2577 17.7414 25.5744 18.4248L23.6214 20.3778L27.3778 24.1341C27.8896 24.646 27.8896 25.479 27.3778 25.9909ZM20.5484 16.9635L16.9635 20.5484L4.04413 12.949C3.24613 12.48 2.75 11.612 2.75 10.6863V3.625C2.75 3.14288 3.14288 2.75 3.625 2.75H10.6862C11.612 2.75 12.4791 3.24613 12.949 4.04413L20.5484 16.9635ZM17.9347 17.9348C18.1054 17.7641 18.1054 17.4868 17.9347 17.3161L4.37225 3.75363C4.20163 3.583 3.92425 3.583 3.75363 3.75363C3.583 3.92425 3.583 4.20163 3.75363 4.37225L17.3161 17.9348C17.401 18.0196 17.513 18.0625 17.625 18.0625C17.737 18.0625 17.849 18.0196 17.9347 17.9348Z" fill="white"/>
</svg>
