<svg width="22" height="22" viewBox="0 0 22 22" fill="none" xmlns="http://www.w3.org/2000/svg">
<g clip-path="url(#clip0_2431_436)">
<path fill-rule="evenodd" clip-rule="evenodd" d="M8.78728 13.8448V7.67178C10.9787 8.70295 12.676 9.69908 14.6833 10.773C13.0277 11.6912 10.9787 12.7215 8.78728 13.8448ZM21.0001 4.60166C20.6221 4.10363 19.9778 3.71595 19.2919 3.5876C17.2758 3.20474 4.69808 3.20365 2.68307 3.5876C2.13302 3.69071 1.64322 3.93995 1.22247 4.3272C-0.550399 5.97269 0.0051328 14.7969 0.432462 16.2263C0.612158 16.845 0.844459 17.2912 1.13702 17.5841C1.51394 17.9714 2.03001 18.238 2.62279 18.3576C4.2828 18.7009 12.8348 18.8929 19.2568 18.4091C19.8485 18.306 20.3722 18.0308 20.7853 17.6271C22.4245 15.9882 22.3128 6.6684 21.0001 4.60166Z" fill="white"/>
</g>
<defs>
<clipPath id="clip0_2431_436">
<rect width="22" height="22" fill="white"/>
</clipPath>
</defs>
</svg>
