<svg width="30" height="31" viewBox="0 0 30 31" fill="none" xmlns="http://www.w3.org/2000/svg">
<g clip-path="url(#clip0_391_731)">
<g clip-path="url(#clip1_391_731)">
<path fill-rule="evenodd" clip-rule="evenodd" d="M12.0034 18.5175V10.7046C14.777 12.0097 16.9251 13.2705 19.4657 14.6298C17.3703 15.7919 14.777 17.0958 12.0034 18.5175ZM27.4606 6.81895C26.9822 6.18862 26.1667 5.69795 25.2986 5.53551C22.7469 5.05095 6.82796 5.04957 4.27766 5.53551C3.58149 5.66601 2.96158 5.98147 2.42905 6.47158C0.185225 8.55419 0.888332 19.7226 1.42918 21.5317C1.65661 22.3148 1.95062 22.8795 2.3209 23.2502C2.79795 23.7403 3.45112 24.0778 4.20137 24.2291C6.30236 24.6637 17.1262 24.9067 25.2542 24.2944C26.0031 24.1639 26.6659 23.8155 27.1888 23.3046C29.2634 21.2303 29.122 9.43471 27.4606 6.81895Z" fill="white"/>
</g>
</g>
<defs>
<clipPath id="clip0_391_731">
<rect width="30" height="30" fill="white" transform="matrix(-1 0 0 1 30 0.09375)"/>
</clipPath>
<clipPath id="clip1_391_731">
<rect width="27.8443" height="27.8443" fill="white" transform="translate(0.881836 0.994934)"/>
</clipPath>
</defs>
</svg>
