<svg width="31" height="31" viewBox="0 0 31 31" fill="none" xmlns="http://www.w3.org/2000/svg">
<path d="M28.4677 3H21.2866C20.6806 3 20.1408 3.41619 19.998 4.02474C19.5627 5.87137 17.9154 7.19689 16 7.19689C14.0846 7.19689 12.4373 5.87137 12.002 4.02474C11.9341 3.73286 11.7697 3.47268 11.5357 3.28659C11.3018 3.10051 11.0119 2.99949 10.7134 3H3.53234C3.12594 3 2.73618 3.16213 2.44881 3.45072C2.16144 3.73932 2 4.13073 2 4.53886V13.3523C2 13.7605 2.16144 14.1519 2.44881 14.4405C2.73618 14.7291 3.12594 14.8912 3.53234 14.8912H6.14428V28.4611C6.14428 28.8693 6.30572 29.2607 6.59309 29.5493C6.88046 29.8379 7.27022 30 7.67662 30H24.3234C24.7298 30 25.1195 29.8379 25.4069 29.5493C25.6943 29.2607 25.8557 28.8693 25.8557 28.4611V14.8912H28.4677C28.8741 14.8912 29.2638 14.7291 29.5512 14.4405C29.8386 14.1519 30 13.7605 30 13.3523V4.53886C30 4.13073 29.8386 3.73932 29.5512 3.45072C29.2638 3.16213 28.8741 3 28.4677 3Z" fill="white"/>
</svg>
