<svg width="31" height="31" viewBox="0 0 31 31" fill="none" xmlns="http://www.w3.org/2000/svg">
<path d="M10.635 7.33344L11.6861 7.98444L12.3042 12.0144L12.3052 12.0164L9.98791 8.43975L10.635 7.33344ZM14.3608 12.6364L19.1174 11.0641L20.4368 11.8788L19.5679 12.9251L14.3608 12.6364ZM18.4877 4.73137C18.2949 4.62384 18.1322 4.47078 18.0198 4.27509C17.6284 3.596 17.9733 2.66309 18.7909 2.19131C19.6086 1.71953 20.5889 1.88712 20.9803 2.56525C21.0937 2.76094 21.145 2.97794 21.1411 3.19978C23.9427 1.94331 26.9866 1.65172 29.4307 2.84134C23.0709 4.67034 17.8009 7.98056 13.208 12.213C13.8523 9.26222 15.9041 6.58944 18.4887 4.73137H18.4877ZM22.634 6.2155L29.4375 18.0071C28.9328 18.8373 28.1907 19.5106 26.9265 19.4583L20.123 7.66669C20.896 7.11062 21.7369 6.63206 22.634 6.2155ZM6.49944 11.7151L17.4463 15.0951L20.0048 20.1045L6.916 29.6098L1.56269 14.4111L6.49944 11.7151Z" fill="white"/>
</svg>
